<svg width="24" height="14" viewBox="0 0 24 14" fill="none" xmlns="http://www.w3.org/2000/svg">
<path d="M1.2 2.64418H22.8C23.1183 2.64418 23.4235 2.51902 23.6485 2.29623C23.8736 2.07345 24 1.77129 24 1.45623C24 1.14116 23.8736 0.839005 23.6485 0.616222C23.4235 0.393438 23.1183 0.26828 22.8 0.26828H1.2C0.88174 0.26828 0.576516 0.393438 0.351472 0.616222C0.126428 0.839005 -3.57628e-07 1.14116 -3.57628e-07 1.45623C-3.57628e-07 1.77129 0.126428 2.07345 0.351472 2.29623C0.576516 2.51902 0.88174 2.64418 1.2 2.64418V2.64418ZM5.2 8.18794H18.8C19.1183 8.18794 19.4235 8.06278 19.6485 7.83999C19.8736 7.61721 20 7.31505 20 6.99999C20 6.68492 19.8736 6.38276 19.6485 6.15998C19.4235 5.9372 19.1183 5.81204 18.8 5.81204H5.2C4.88174 5.81204 4.57652 5.9372 4.35147 6.15998C4.12643 6.38276 4 6.68492 4 6.99999C4 7.31505 4.12643 7.61721 4.35147 7.83999C4.57652 8.06278 4.88174 8.18794 5.2 8.18794ZM10 13.7317H14C14.3183 13.7317 14.6235 13.6065 14.8485 13.3838C15.0736 13.161 15.2 12.8588 15.2 12.5437C15.2 12.2287 15.0736 11.9265 14.8485 11.7037C14.6235 11.481 14.3183 11.3558 14 11.3558H10C9.68174 11.3558 9.37652 11.481 9.15147 11.7037C8.92643 11.9265 8.8 12.2287 8.8 12.5437C8.8 12.8588 8.92643 13.161 9.15147 13.3838C9.37652 13.6065 9.68174 13.7317 10 13.7317Z" fill="white"/>
</svg>
